<svg id="Layer_1" fill="white" enable-background="new 0 0 512 512" height="86" viewBox="0 0 512 512" width="86" xmlns="http://www.w3.org/2000/svg"><path d="m301 421.259c-116.346 0-211-94.654-211-211 11.59-279.92 410.452-279.839 422 .002 0 116.344-94.654 210.998-211 210.998zm0-382c-94.29 0-171 76.71-171 171 9.393 226.855 332.641 226.789 342-.001 0-94.288-76.71-170.999-171-170.999zm88 171c0 11.046-8.954 20-20 20h-45v45c-1.056 26.536-38.953 26.516-40 0v-45h-45c-26.536-1.056-26.516-38.953 0-40h45v-45c1.056-26.536 38.953-26.516 40 0v45h45c11.046 0 20 8.954 20 20zm-293.102 177.71-90 89.5c-7.833 7.789-7.868 20.452-.079 28.284 7.79 7.833 20.453 7.867 28.284.079l90-89.5c18.072-19.461-8.667-46.318-28.205-28.363z"/></svg>